<svg xmlns="http://www.w3.org/2000/svg"><style>:root svg:not(:target){display:none}</style><svg viewBox="0 0 16 16" fill="none" id="Bolt"><g clip-path="url(#Bolt_0)" stroke="#6439DF"><path d="M7.33 2.76a1.3 1.3 0 0 1 1.34 0l3.49 2.03c.41.24.67.69.67 1.18v4.06c0 .49-.26.94-.67 1.18l-3.49 2.03a1.3 1.3 0 0 1-1.34 0l-3.49-2.03a1.37 1.37 0 0 1-.67-1.18v-4.06c0-.49.26-.94.67-1.18l3.49-2.03Z"></path><path d="m9.33 5.33-2.66 2.67h2.66l-2.66 2.67" stroke-linecap="round" stroke-linejoin="round"></path></g><defs><clipPath id="Bolt_0"><path fill="#fff" d="M0 0h16v16h-16z"></path></clipPath></defs></svg></svg>